HIERARCHY
ROOT Hips
{
	OFFSET 0.000000 0.000000 0.000000
	CHANNELS 6 Xposition Yposition Zposition Xrotation Yrotation Zrotation
	JOINT LeftUpLeg_virtual
	{
		OFFSET 0.000000 0.000000 0.000000
		CHANNELS 3 Xrotation Yrotation Zrotation
		JOINT LeftUpLeg
		{
			OFFSET 10.205400 -3.823500 0.155100
			CHANNELS 3 Xrotation Yrotation Zrotation
			JOINT LeftLeg
			{
				OFFSET 0.708757 -12.982077 0.567790
				CHANNELS 3 Xrotation Yrotation Zrotation
				JOINT LeftFoot
				{
					OFFSET -0.708756 -10.717838 -2.184338
					CHANNELS 3 Xrotation Yrotation Zrotation
					JOINT LeftToeBase
					{
						OFFSET 0.108149 -7.191104 7.560241
						CHANNELS 3 Xrotation Yrotation Zrotation
						JOINT LeftToe_End
						{
							OFFSET 0.070230 0.081724 4.490308
							CHANNELS 3 Xrotation Yrotation Zrotation
							End Site
							{
								OFFSET 0 0 0
							}
						}
					}
				}
			}
		}
	}
	JOINT RightUpLeg_virtual
	{
		OFFSET 0.000000 0.000000 0.000000
		CHANNELS 3 Xrotation Yrotation Zrotation
		JOINT RightUpLeg
		{
			OFFSET -10.205400 -3.823500 0.005500
			CHANNELS 3 Xrotation Yrotation Zrotation
			JOINT RightLeg
			{
				OFFSET -0.708756 -12.982134 0.610632
				CHANNELS 3 Xrotation Yrotation Zrotation
				JOINT RightFoot
				{
					OFFSET 0.708754 -10.717769 -1.945823
					CHANNELS 3 Xrotation Yrotation Zrotation
					JOINT RightToeBase
					{
						OFFSET -0.108140 -7.191069 7.372968
						CHANNELS 3 Xrotation Yrotation Zrotation
						JOINT RightToe_End
						{
							OFFSET -0.070227 0.081735 4.479403
							CHANNELS 3 Xrotation Yrotation Zrotation
							End Site
							{
								OFFSET 0 0 0
							}
						}
					}
				}
			}
		}
	}
	JOINT Spine_virtual
	{
		OFFSET 0.000000 0.000000 0.000000
		CHANNELS 3 Xrotation Yrotation Zrotation
		JOINT Spine
		{
			OFFSET 0.000000 6.876099 0.125700
			CHANNELS 3 Xrotation Yrotation Zrotation
			JOINT Spine1
			{
				OFFSET 0.000000 5.730043 0.104720
				CHANNELS 3 Xrotation Yrotation Zrotation
				JOINT Spine1_split
				{
					OFFSET 0.000000 5.730043 0.104720
					CHANNELS 3 Xrotation Yrotation Zrotation
					JOINT Spine2
					{
						OFFSET 0.000000 5.730043 0.104720
						CHANNELS 3 Xrotation Yrotation Zrotation
						JOINT Neck_virtual
						{
							OFFSET 0.000000 0.000000 0.000000
							CHANNELS 3 Xrotation Yrotation Zrotation
							JOINT Neck
							{
								OFFSET 0.000000 10.314075 0.188496
								CHANNELS 3 Xrotation Yrotation Zrotation
								JOINT Head
								{
									OFFSET 0.000000 7.643700 -2.377400
									CHANNELS 3 Xrotation Yrotation Zrotation
									JOINT HeadTop_End
									{
										OFFSET 0.000000 43.788605 -13.619600
										CHANNELS 3 Xrotation Yrotation Zrotation
										End Site
										{
											OFFSET 0 0 0
										}
									}
								}
							}
						}
						JOINT LeftShoulder_virtual
						{
							OFFSET 0.000000 0.000000 0.000000
							CHANNELS 3 Xrotation Yrotation Zrotation
							JOINT LeftShoulder
							{
								OFFSET 2.196100 4.412489 0.087492
								CHANNELS 3 Xrotation Yrotation Zrotation
								JOINT LeftShoulder_split
								{
									OFFSET 2.196100 4.412489 0.087492
									CHANNELS 3 Xrotation Yrotation Zrotation
									JOINT LeftArm
									{
										OFFSET 8.771219 -2.981674 -0.026999
										CHANNELS 3 Xrotation Yrotation Zrotation
										JOINT LeftForeArm
										{
											OFFSET 8.512804 0.000000 -0.000000
											CHANNELS 3 Xrotation Yrotation Zrotation
											JOINT LeftHand
											{
												OFFSET 18.484802 0.000000 -0.000000
												CHANNELS 3 Xrotation Yrotation Zrotation
												End Site
												{
													OFFSET 0 0 0
												}
											}
										}
									}
								}
							}
						}
						JOINT RightShoulder_virtual
						{
							OFFSET 0.000000 0.000000 0.000000
							CHANNELS 3 Xrotation Yrotation Zrotation
							JOINT RightShoulder
							{
								OFFSET -2.196100 4.412496 0.070690
								CHANNELS 3 Xrotation Yrotation Zrotation
								JOINT RightShoulder_split
								{
									OFFSET -2.196100 4.412496 0.070690
									CHANNELS 3 Xrotation Yrotation Zrotation
									JOINT RightArm
									{
										OFFSET -8.771282 -2.981682 -0.094208
										CHANNELS 3 Xrotation Yrotation Zrotation
										JOINT RightForeArm
										{
											OFFSET -8.494598 0.000000 0.000000
											CHANNELS 3 Xrotation Yrotation Zrotation
											JOINT RightHand
											{
												OFFSET -18.483803 0.000000 0.000001
												CHANNELS 3 Xrotation Yrotation Zrotation
												End Site
												{
													OFFSET 0 0 0
												}
											}
										}
									}
								}
							}
						}
					}
				}
			}
		}
	}
}
MOTION
Frames: 7
Frame Time: 0.03333333
-44.386047 26.262857 -0.757257 0.000000 0.000000 0.000000 15.931708 -61.277718 12.998154 -62.238514 -13.726474 15.187113 41.220916 -3.467977 -2.933084 18.632078 2.889596 -19.877659 -4.682814 -0.168000 0.388663 0.000000 0.000000 0.000000 14.599483 -60.427517 12.843559 -33.692309 -1.537376 -21.578992 89.121476 18.348830 -4.629636 -37.367217 -2.261777 19.830969 -9.971574 1.671522 -14.218290 0.000000 0.000000 0.000000 17.521761 -55.484458 12.066325 14.060242 4.442878 -3.873055 16.495337 3.990546 -5.296572 0.656218 -1.952697 0.951864 0.000000 0.000000 0.000000 16.591785 4.193548 -5.162408 -10.273215 14.689131 7.521801 -11.995810 15.193255 -0.102089 0.000000 0.000000 0.000000 17.393015 3.572164 -4.834548 -0.529334 -9.218186 11.643622 -2.437994 -3.452437 -4.827813 -33.087086 17.993934 -22.064706 0.277802 -67.591470 -1.467316 0.000000 0.000000 0.000000 16.030864 3.814788 -4.861102 -1.813013 13.272470 16.846016 3.016818 3.750369 -0.347614 -43.915695 -2.185595 41.893334 -42.891020 71.179683 39.328663 0.000000 0.000000 0.000000 
-45.673553 26.163813 -0.734451 0.000000 0.000000 0.000000 11.060743 -61.773897 8.006420 -58.358707 -16.981660 18.076799 50.364927 -6.371981 -4.441283 11.347687 4.127508 -17.790056 -2.702935 -0.155858 0.129805 0.000000 0.000000 0.000000 9.615071 -61.925623 8.126055 -38.530115 1.204725 -25.589164 89.346907 18.082043 -3.622993 -30.752329 -2.897950 18.881904 -5.897795 0.978600 -10.483095 0.000000 0.000000 0.000000 15.580572 -57.815885 9.761705 14.418084 4.022744 -3.929343 16.051947 3.102297 -5.806354 0.816445 -1.741591 0.781688 0.000000 0.000000 0.000000 16.244937 3.113664 -5.738644 -12.722861 16.759594 6.592166 -12.951467 18.058187 0.530257 0.000000 0.000000 0.000000 17.103277 2.620251 -5.464731 -0.726948 -10.093895 10.080415 -3.642004 -4.213013 -5.940382 -35.548280 17.642934 -20.362971 -0.006283 -68.244177 -0.848118 0.000000 0.000000 0.000000 15.722071 2.824658 -5.511929 -2.255284 13.352614 15.268574 3.022513 4.622523 0.197606 -42.668574 -3.389402 43.531200 -41.615352 71.976008 37.982986 0.000000 0.000000 0.000000 
-46.961502 26.282738 -0.793495 0.000000 0.000000 0.000000 6.557554 -61.212032 3.618155 -53.397230 -19.763188 20.194771 55.557947 -8.161750 -5.108619 2.406030 5.858486 -15.521053 0.189029 -0.017122 -0.896655 0.000000 0.000000 0.000000 5.309618 -62.056107 4.143454 -40.361302 4.632108 -28.727721 85.150042 16.724927 -2.587714 -26.319975 -5.069199 17.356909 -0.916020 0.195346 -5.008928 0.000000 0.000000 0.000000 12.760795 -59.653834 7.156014 14.615193 3.518332 -3.867166 15.509570 2.384699 -6.143031 0.853393 -1.264783 0.673691 0.000000 0.000000 0.000000 15.697520 2.303553 -6.162671 -14.715769 18.893382 5.810119 -12.524546 21.147341 1.018217 0.000000 0.000000 0.000000 16.596308 1.902040 -5.900973 -1.272452 -11.175579 7.144910 -4.393602 -4.398839 -6.680010 -36.185946 16.847840 -21.025776 0.518652 -70.078178 0.341167 0.000000 0.000000 0.000000 15.336587 2.083911 -5.923293 -2.584128 13.487234 13.443592 3.238781 5.150094 0.701115 -41.324939 -4.873853 44.156073 -41.873127 73.683480 38.322402 0.000000 0.000000 0.000000 
-48.122665 26.365252 -0.917458 0.000000 0.000000 0.000000 3.366993 -60.450111 0.627458 -48.400776 -21.581113 21.783587 57.440552 -9.446972 -5.335837 -6.294865 6.525317 -13.797594 0.375311 0.049049 -1.688430 0.000000 0.000000 0.000000 1.803919 -61.505437 0.994215 -39.462395 7.471977 -30.822243 78.451594 15.018036 -2.283412 -24.633653 -7.669414 16.889859 3.979495 -0.241989 0.416921 0.000000 0.000000 0.000000 9.502664 -60.839623 4.616240 14.559235 3.050905 -3.771140 14.876376 1.873869 -6.356750 0.646096 -1.201400 0.550639 0.000000 0.000000 0.000000 15.047216 1.798871 -6.416298 -16.100122 20.819330 5.095114 -10.835491 23.987097 1.295496 0.000000 0.000000 0.000000 15.908359 1.460262 -6.173759 -2.133376 -12.317387 3.208952 -4.673351 -3.770235 -6.337362 -34.313112 15.683178 -23.186581 1.523007 -71.865727 1.651068 0.000000 0.000000 0.000000 14.855704 1.619309 -6.105269 -2.766394 13.516763 11.643614 3.683798 5.195862 1.042952 -40.110300 -7.037940 43.893582 -47.473619 76.941726 44.145627 0.000000 0.000000 0.000000 
-49.145615 26.283453 -1.014166 0.000000 0.000000 0.000000 1.416509 -59.496910 -0.948400 -45.131619 -21.938066 23.130765 58.267073 -10.759039 -5.347865 -12.792844 5.270475 -12.359734 -1.793089 0.032687 -1.833094 0.000000 0.000000 0.000000 -0.512324 -60.592152 -0.890978 -37.174647 8.725404 -32.001431 72.321157 13.825273 -2.935184 -25.064393 -9.712510 18.749561 6.988775 -0.340594 4.058311 0.000000 0.000000 0.000000 6.384750 -60.970674 2.565089 14.245254 2.705571 -3.634619 14.197178 1.553179 -6.484349 0.332152 -1.587347 0.647972 0.000000 0.000000 0.000000 14.351153 1.554425 -6.553279 -17.056029 22.407346 4.457956 -8.321108 26.120348 1.388022 0.000000 0.000000 0.000000 15.175260 1.212133 -6.340268 -3.178350 -13.527334 -1.003887 -4.730038 -2.354222 -5.502651 -30.609325 13.809901 -25.870714 1.880462 -71.672911 2.104080 0.000000 0.000000 0.000000 14.309757 1.388404 -6.128034 -2.775689 13.384167 10.005707 4.167629 5.015973 1.008327 -39.599685 -9.835489 42.942963 -64.827170 80.764583 61.819120 0.000000 0.000000 0.000000 
-49.975250 26.007845 -1.132166 0.000000 0.000000 0.000000 0.248614 -58.838460 -1.557628 -44.448378 -21.071436 24.493308 60.125220 -12.688305 -5.221437 -15.304422 2.215323 -11.740594 -4.052382 -0.069965 -1.306477 0.000000 0.000000 0.000000 -2.143439 -59.671729 -2.052721 -34.635736 8.329884 -32.378887 68.698958 13.756382 -4.336539 -27.018820 -10.673568 22.727251 7.696201 -0.415351 5.144169 0.000000 0.000000 0.000000 3.724905 -60.555289 1.112214 13.774268 2.570912 -3.403602 13.555072 1.343703 -6.578980 0.681018 -2.509364 0.715461 0.000000 0.000000 0.000000 13.744111 1.468812 -6.639414 -17.846277 23.540587 3.917589 -5.713374 27.441332 1.365372 0.000000 0.000000 0.000000 14.516399 1.042199 -6.456991 -4.297567 -14.570081 -4.994087 -4.599075 -0.895716 -4.304611 -26.037822 11.267630 -28.362647 1.201067 -68.819852 1.400249 0.000000 0.000000 0.000000 13.748855 1.315730 -6.071248 -2.679276 13.150326 8.623823 4.644401 4.990864 0.711412 -40.361265 -12.771854 41.472120 -98.157748 82.643390 95.460978 0.000000 0.000000 0.000000 
-50.610947 25.677591 -1.171694 0.000000 0.000000 0.000000 -0.289626 -58.600052 -1.548586 -45.898154 -19.498737 25.891106 63.245988 -14.772617 -5.239185 -14.660678 -1.173055 -11.088360 -4.507041 -0.074209 -0.672633 0.000000 0.000000 0.000000 -3.381682 -58.935845 -2.806540 -32.628367 6.651291 -32.338555 68.478432 14.243749 -5.780444 -29.722080 -10.656070 26.991594 6.623552 -0.628640 4.079360 0.000000 0.000000 0.000000 2.013294 -59.546300 0.459965 13.229732 2.645660 -3.022073 13.005809 1.158676 -6.667824 0.984217 -3.276940 0.848731 0.000000 0.000000 0.000000 13.306616 1.378724 -6.695392 -18.718524 24.179860 3.499209 -3.503873 27.921564 1.331227 0.000000 0.000000 0.000000 14.017974 0.876728 -6.547999 -5.338744 -15.249555 -8.330796 -4.898289 0.004960 -2.986984 -21.211673 8.134865 -30.364183 0.691626 -63.847734 0.660984 0.000000 0.000000 0.000000 13.256341 1.270591 -6.006680 -2.582868 12.841805 7.470420 4.769697 5.098757 0.376256 -42.269070 -15.091663 39.564800 -125.930588 82.000751 123.495831 0.000000 0.000000 0.000000 
